<?xml version="1.0" encoding="UTF-8"?>
<svg width="143px" height="34px" viewBox="0 0 143 34" version="1.1" xmlns="http://www.w3.org/2000/svg" xmlns:xlink="http://www.w3.org/1999/xlink">
    <!-- Generator: Sketch 50.2 (55047) - http://www.bohemiancoding.com/sketch -->
    <title>logo-nowo</title>
    <desc>Created with Sketch.</desc>
    <defs></defs>
    <g id="INTERNET" stroke="none" stroke-width="1" fill="none" fill-rule="evenodd">
        <g id="06_nowo_internet_v4-copy" transform="translate(-136.000000, -61.000000)" fill="#FF3400">
            <g id="main" transform="translate(0.000000, 33.000000)">
                <g id="logo-nowo" transform="translate(136.000000, 28.000000)">
                    <path d="M125.583927,6.58064516 C120.175826,6.58064516 116.258065,10.979139 116.258065,17.0438743 C116.258065,23.0533058 120.175826,27.4193548 125.583927,27.4193548 C130.984006,27.4193548 134.903226,23.0533058 134.903226,17.0438743 C134.903226,10.979139 130.984006,6.58064516 125.583927,6.58064516 M125.625443,34 C116.067158,34 108.580645,26.5520453 108.580645,17.0456204 C108.580645,7.32798989 115.909162,0 125.625443,0 C135.138449,0 142.580645,7.485851 142.580645,17.0456204 C142.580645,26.5520453 135.138449,34 125.625443,34" id="Fill-1"></path>
                    <path d="M48.8057222,6.58064516 C43.4070821,6.58064516 39.483871,10.9831825 39.483871,17.0442269 C39.483871,23.0512161 43.4070821,27.4193548 48.8057222,27.4193548 C54.2087389,27.4193548 58.1290323,23.0512161 58.1290323,17.0442269 C58.1290323,10.9831825 54.2087389,6.58064516 48.8057222,6.58064516 M48.8558226,34 C39.2925399,34 31.8064516,26.5490728 31.8064516,17.0446568 C31.8064516,7.32709511 39.1331077,0 48.8558226,0 C58.3588968,0 65.8064516,7.48496294 65.8064516,17.0446568 C65.8064516,26.5490728 58.3588968,34 48.8558226,34" id="Fill-4"></path>
                    <path d="M22.1964312,32.9032258 L22.1917004,15.3711864 C22.1917004,11.4771368 20.2963062,7.29978534 14.9741584,7.2539398 L14.693149,7.2539398 C9.32818752,7.30801403 7.42049322,11.4801932 7.42049322,15.3711864 L7.42049322,32.9032258 L0,32.9032258 L0,0.514880669 L6.32696926,0.514880669 L6.52850125,2.04518125 C8.77515723,0.706726617 11.4430908,0.0204541636 14.4599207,0 L15.1482518,0 C23.9349995,0.0576008054 29.6129032,5.84072167 29.6129032,14.7349913 L29.6129032,32.9032258 L22.1964312,32.9032258 Z" id="Fill-6"></path>
                    <polygon id="Fill-9" points="96.627425 32.9032258 87.1947416 14.4867705 77.7563309 32.9032258 76.1729612 32.9032258 62.516129 1.13206338 70.7887883 1.13206338 77.8047746 17.5133511 86.5198705 1.09677419 87.8696126 1.09677419 96.5827995 17.5133511 103.598309 1.13206338 111.870968 1.13206338 98.2117492 32.9032258"></polygon>
                </g>
            </g>
        </g>
    </g>
</svg>